<svg width="96" height="31" viewBox="0 0 96 31" fill="none" xmlns="http://www.w3.org/2000/svg">
<path d="M0.418437 0.709417H3.26381L10.8794 26.8199L9.91695 30H8.91271L0.418437 0.709417ZM10.2099 18.493L15.0219 0.709417H17.8673L24.9388 26.9873L23.9346 30H22.9303L16.4446 5.89803C15.8867 7.96232 14.9521 11.3935 13.641 16.1916C12.5531 20.1528 11.9533 22.3147 11.8418 22.6774H11.4233L10.2099 18.493ZM24.6041 18.5348L29.8764 0.709417H32.7218L26.236 22.6774H25.8176L24.6041 18.5348ZM34.8139 30.0837V0.583886H37.4919V9.91503C38.5799 8.74341 40.0305 8.14365 41.8437 8.11575V10.7101C40.5047 10.7101 39.347 11.2819 38.3707 12.4257C37.8127 13.0951 37.5338 13.7507 37.5338 14.3923V30.0837H34.8139ZM43.7685 10.7101V8.11575C46.3628 8.11575 48.2876 9.03631 49.5429 10.8774C50.2124 11.8538 50.5472 12.8999 50.5472 14.0157V30.0837H47.8692V14.3923C47.8692 13.0812 47.3113 12.063 46.1954 11.3377C45.498 10.9193 44.6891 10.7101 43.7685 10.7101ZM53.8528 30V7.781H56.6564V11.0867C57.2422 9.88713 58.2185 8.96657 59.5854 8.32497C60.4223 7.93443 61.2871 7.73916 62.1797 7.73916H62.64L61.9705 10.4172C60.492 10.445 59.1809 11.2819 58.0372 12.9278C57.1166 14.2947 56.6564 15.7034 56.6564 17.154V30H53.8528ZM64.8996 28.117C64.8996 27.2244 65.3041 26.5967 66.113 26.2341C66.392 26.1225 66.6709 26.0667 66.9499 26.0667C67.8426 26.0667 68.4702 26.4712 68.8329 27.2802C68.9445 27.5312 69.0002 27.8102 69.0002 28.117C69.0002 29.0097 68.5958 29.6374 67.7868 30C67.5078 30.1116 67.2289 30.1674 66.9499 30.1674C66.0572 30.1674 65.4296 29.7629 65.0669 28.9539C64.9554 28.6749 64.8996 28.396 64.8996 28.117ZM72.0967 24.8114V22.8447C72.1246 21.0315 72.822 19.7343 74.1889 18.9533C74.6631 18.7022 76.4903 18.1722 79.6704 17.3632C83.0737 16.4984 84.7614 15.7174 84.7335 15.02V14.2668C84.7335 13.3741 84.4824 12.5791 83.9803 11.8817C83.1713 10.7659 82.0973 10.2079 80.7583 10.2079V7.69731C82.5994 7.69731 84.1477 8.28312 85.403 9.45475C86.7978 10.7659 87.4952 12.3559 87.4952 14.2249V25.9412C87.523 26.8059 87.8857 27.2662 88.5831 27.322V29.9582C87.2999 29.9582 86.2677 29.456 85.4867 28.4518C85.4588 28.4797 85.4309 28.5076 85.403 28.5355C84.2871 29.4839 82.7389 29.9582 80.7583 29.9582V27.3638C80.9257 27.3638 81.107 27.3499 81.3023 27.322C83.6176 27.1546 84.7753 25.9133 84.7753 23.5979V18.3256C83.9942 18.7162 82.4321 19.1904 80.0888 19.7483C77.1877 20.4178 75.5279 20.9618 75.1094 21.3802C74.8026 21.6871 74.6352 22.1613 74.6073 22.8029V24.1419C74.6073 24.4487 74.6491 24.7556 74.7328 25.0624C75.1513 26.5967 76.4903 27.3638 78.7498 27.3638V29.9582C77.0482 29.9582 75.5697 29.5258 74.3144 28.661C72.8359 27.601 72.0967 26.3178 72.0967 24.8114ZM72.3896 13.2625C72.3617 11.9514 72.8778 10.7659 73.9378 9.70581C75.2768 8.36681 76.8948 7.69731 78.7917 7.69731V10.2916C78.1222 10.2916 77.4945 10.445 76.9087 10.7519C75.5418 11.4772 74.8584 12.6349 74.8584 14.2249L72.3896 13.2625ZM91.9306 4.8101C91.9306 4.05691 92.2932 3.54084 93.0185 3.26188C93.2417 3.17819 93.4509 3.13635 93.6462 3.13635C94.3994 3.13635 94.9154 3.499 95.1944 4.22429C95.2502 4.41956 95.2781 4.61483 95.2781 4.8101C95.2781 5.59118 94.9154 6.10725 94.1901 6.35832C93.9949 6.41411 93.8136 6.442 93.6462 6.442C92.8651 6.442 92.3351 6.09331 92.0561 5.39591C91.9724 5.20064 91.9306 5.00537 91.9306 4.8101ZM92.2653 30V8.11575H95.027V30H92.2653Z" fill="black"/>
</svg>
